<svg xmlns="http://www.w3.org/2000/svg" version="1.1" xmlns:xlink="http://www.w3.org/1999/xlink" xmlns:svgjs="http://svgjs.dev/svgjs" width="2000" height="747" viewBox="0 0 2000 747"><g transform="matrix(1,0,0,1,-1.2121212121213603,0.9956974667763916)"><svg viewBox="0 0 396 148" data-background-color="#a8deea" preserveAspectRatio="xMidYMid meet" height="747" width="2000" xmlns="http://www.w3.org/2000/svg" xmlns:xlink="http://www.w3.org/1999/xlink"><g id="tight-bounds" transform="matrix(1,0,0,1,0.24000000000003752,-0.19727339368527907)"><svg viewBox="0 0 395.5199999999999 148.39454678737056" height="148.39454678737056" width="395.5199999999999"><g><svg viewBox="0 0 531.4190223431489 199.38229413126803" height="148.39454678737056" width="395.5199999999999"><g><rect width="7.719119168683185" height="166.46634821156738" x="415.72711824262615" y="16.457972959850323" fill="#261f20" opacity="1" stroke-width="0" stroke="transparent" fill-opacity="1" class="rect-qz-0" data-fill-palette-color="primary" rx="1%" id="qz-0" data-palette-color="#261f20"></rect></g><g transform="matrix(1,0,0,1,0,30.330168644147605)"><svg viewBox="0 0 395.52 138.72195684297282" height="138.72195684297282" width="395.52"><g id="textblocktransform"><svg viewBox="0 0 395.52 138.72195684297282" height="138.72195684297282" width="395.52" id="textblock"><g><svg viewBox="0 0 395.52 85.59581762917932" height="85.59581762917932" width="395.52"><g transform="matrix(1,0,0,1,0,0)"><svg width="395.52" viewBox="3.45 -35 168.39000000000001 35.6" height="85.59581762917932" data-palette-color="#261f20"><g class="wordmark-text-0" data-fill-palette-color="primary" id="text-0"><path d="M10.2 0L3.45 0 3.45-35 16.5-35Q20.75-35 23.5-33.55 26.25-32.1 27.6-29.68 28.95-27.25 28.95-24.3L28.95-24.3Q28.95-21.5 27.65-19.07 26.35-16.65 23.58-15.18 20.8-13.7 16.45-13.7L16.45-13.7 10.2-13.7 10.2 0ZM29.3 0L21.6 0 14.4-15.4 21.7-15.4 29.3 0ZM10.2-29.35L10.2-18.6 16.1-18.6Q19.15-18.6 20.6-20.1 22.05-21.6 22.05-24.05L22.05-24.05Q22.05-26.5 20.63-27.93 19.2-29.35 16.1-29.35L16.1-29.35 10.2-29.35ZM46.95 0.6L46.95 0.6Q43.15 0.6 40.22-1.03 37.3-2.65 35.67-5.58 34.05-8.5 34.05-12.35L34.05-12.35Q34.05-16.3 35.65-19.33 37.25-22.35 40.17-24.08 43.1-25.8 46.95-25.8L46.95-25.8Q50.7-25.8 53.5-24.15 56.3-22.5 57.85-19.7 59.4-16.9 59.4-13.35L59.4-13.35Q59.4-12.85 59.4-12.23 59.4-11.6 59.3-10.95L59.3-10.95 38.85-10.95 38.85-15.05 52.6-15.05Q52.45-17.5 50.87-18.9 49.3-20.3 46.95-20.3L46.95-20.3Q45.25-20.3 43.8-19.53 42.35-18.75 41.52-17.15 40.7-15.55 40.7-13.1L40.7-13.1 40.7-11.65Q40.7-9.6 41.47-8.08 42.25-6.55 43.65-5.73 45.05-4.9 46.9-4.9L46.9-4.9Q48.75-4.9 49.97-5.7 51.2-6.5 51.8-7.75L51.8-7.75 58.7-7.75Q58-5.4 56.35-3.5 54.7-1.6 52.3-0.5 49.9 0.6 46.95 0.6ZM71.7 0L64.95 0 64.95-25.2 70.9-25.2 71.4-21.1 71.4-21.1Q72.55-23.2 74.67-24.5 76.8-25.8 79.75-25.8L79.75-25.8Q82.9-25.8 85.05-24.5 87.2-23.2 88.32-20.7 89.45-18.2 89.45-14.55L89.45-14.55 89.45 0 82.75 0 82.75-13.9Q82.75-16.9 81.47-18.5 80.2-20.1 77.55-20.1L77.55-20.1Q75.84-20.1 74.52-19.3 73.2-18.5 72.45-17.03 71.7-15.55 71.7-13.45L71.7-13.45 71.7 0ZM111.69 0L107.14 0Q104.49 0 102.52-0.83 100.54-1.65 99.44-3.58 98.34-5.5 98.34-8.85L98.34-8.85 98.34-19.55 94.04-19.55 94.04-25.2 98.34-25.2 99.09-32.05 105.09-32.05 105.09-25.2 111.74-25.2 111.74-19.55 105.09-19.55 105.09-8.75Q105.09-7.05 105.84-6.4 106.59-5.75 108.39-5.75L108.39-5.75 111.69-5.75 111.69 0ZM129.54 0.6L129.54 0.6Q125.74 0.6 122.82-1.03 119.89-2.65 118.27-5.58 116.64-8.5 116.64-12.35L116.64-12.35Q116.64-16.3 118.24-19.33 119.84-22.35 122.77-24.08 125.69-25.8 129.54-25.8L129.54-25.8Q133.29-25.8 136.09-24.15 138.89-22.5 140.44-19.7 141.99-16.9 141.99-13.35L141.99-13.35Q141.99-12.85 141.99-12.23 141.99-11.6 141.89-10.95L141.89-10.95 121.44-10.95 121.44-15.05 135.19-15.05Q135.04-17.5 133.47-18.9 131.89-20.3 129.54-20.3L129.54-20.3Q127.84-20.3 126.39-19.53 124.94-18.75 124.12-17.15 123.29-15.55 123.29-13.1L123.29-13.1 123.29-11.65Q123.29-9.6 124.07-8.08 124.84-6.55 126.24-5.73 127.64-4.9 129.49-4.9L129.49-4.9Q131.34-4.9 132.57-5.7 133.79-6.5 134.39-7.75L134.39-7.75 141.29-7.75Q140.59-5.4 138.94-3.5 137.29-1.6 134.89-0.5 132.49 0.6 129.54 0.6ZM152.49 0L145.19 0 154.24-12.6 145.19-25.2 152.49-25.2 158.54-16.55 158.54-16.55 164.59-25.2 171.84-25.2 162.79-12.6 171.84 0 164.59 0 158.54-8.7 158.54-8.7 152.49 0Z" fill="#261f20" data-fill-palette-color="primary"></path></g></svg></g></svg></g><g transform="matrix(1,0,0,1,181.34592,105.80293587180546)"><svg viewBox="0 0 214.17407999999998 32.91902097116734" height="32.91902097116734" width="214.17407999999998"><g transform="matrix(1,0,0,1,0,0)"><svg width="214.17407999999998" viewBox="2.9773437499999997 -36 238.10265625000002 36.6" height="32.91902097116734" data-palette-color="#414141"><path d="M16.75 0.6L16.75 0.6Q12.2 0.6 9.05-1.28 5.9-3.15 4.35-6.55 2.8-9.95 3-14.45L3-14.45Q3.2-18.95 4.78-22.83 6.35-26.7 9.05-29.58 11.75-32.45 15.3-34.02 18.85-35.6 23-35.6L23-35.6Q29-35.6 32.27-32.75 35.55-29.9 35.7-24.7L35.7-24.7 31-24.7Q30.85-28.05 28.73-29.98 26.6-31.9 22.4-31.9L22.4-31.9Q19.3-31.9 16.63-30.63 13.95-29.35 11.93-27.03 9.9-24.7 8.72-21.55 7.55-18.4 7.4-14.7L7.4-14.7Q7.2-11.05 8.35-8.47 9.5-5.9 11.78-4.5 14.05-3.1 17.35-3.1L17.35-3.1Q21.55-3.1 24.33-5 27.1-6.9 28.45-10.15L28.45-10.15 33.15-10.15Q31.85-6.8 29.53-4.38 27.2-1.95 23.98-0.68 20.75 0.6 16.75 0.6ZM45.3 0.6L45.3 0.6Q42.45 0.6 40.67-0.38 38.9-1.35 38.1-2.98 37.3-4.6 37.4-6.45L37.4-6.45Q37.5-9.15 39.05-11.1 40.6-13.05 43.35-14.1 46.1-15.15 49.65-15.15L49.65-15.15 56.3-15.15Q56.7-17.55 56.27-19.13 55.85-20.7 54.6-21.48 53.35-22.25 51.35-22.25L51.35-22.25Q48.95-22.25 47-21.05 45.05-19.85 44.2-17.5L44.2-17.5 39.85-17.5Q40.65-20.2 42.47-22.03 44.3-23.85 46.75-24.83 49.2-25.8 51.9-25.8L51.9-25.8Q55.3-25.8 57.42-24.53 59.55-23.25 60.35-20.98 61.15-18.7 60.6-15.6L60.6-15.6 57.85 0 54.05 0 54.6-4.45 54.6-4.45Q53.9-3.4 52.97-2.48 52.05-1.55 50.9-0.85 49.75-0.15 48.35 0.23 46.95 0.6 45.3 0.6ZM46.5-2.95L46.5-2.95Q48.3-2.95 49.9-3.68 51.5-4.4 52.77-5.65 54.05-6.9 54.82-8.45 55.6-10 55.7-11.7L55.7-11.7 55.7-11.9 49.45-11.9Q47.1-11.9 45.4-11.28 43.7-10.65 42.82-9.53 41.95-8.4 41.85-6.85L41.85-6.85Q41.8-5.05 43-4 44.2-2.95 46.5-2.95ZM69.05 0L64.85 0 69.25-25.2 73.1-25.2 72.6-20.7 72.6-20.7Q73.75-22.3 75.3-23.43 76.85-24.55 78.85-25.18 80.85-25.8 83.15-25.8L83.15-25.8 82.4-21.4 80.9-21.4Q79.25-21.4 77.72-21 76.2-20.6 74.92-19.7 73.65-18.8 72.75-17.32 71.85-15.85 71.45-13.65L71.45-13.65 69.05 0ZM101.94 0L97.74 0 103.89-35 115.19-35Q118.89-35 121.17-33.75 123.44-32.5 124.44-30.43 125.44-28.35 125.34-25.85L125.34-25.85Q125.19-22.45 123.44-19.88 121.69-17.3 118.59-15.88 115.49-14.45 111.39-14.45L111.39-14.45 104.49-14.45 101.94 0ZM121.19 0L116.59 0 111.64-15.65 116.04-15.65 121.19 0ZM107.49-31.45L105.09-17.75 111.89-17.75Q115.99-17.75 118.44-19.8 120.89-21.85 120.99-25.55L120.99-25.55Q121.14-28.05 119.57-29.75 117.99-31.45 114.24-31.45L114.24-31.45 107.49-31.45ZM137.44 0.6L137.44 0.6Q134.29 0.6 131.96-0.8 129.64-2.2 128.46-4.75 127.29-7.3 127.44-10.7L127.44-10.7Q127.59-13.95 128.74-16.68 129.89-19.4 131.86-21.45 133.84-23.5 136.44-24.65 139.04-25.8 142.09-25.8L142.09-25.8Q145.49-25.8 147.71-24.4 149.94-23 150.99-20.68 152.04-18.35 151.89-15.55L151.89-15.55Q151.89-14.7 151.71-13.63 151.54-12.55 151.29-11.65L151.29-11.65 130.69-11.65 131.24-14.9 147.74-14.9Q148.09-17.25 147.34-18.88 146.59-20.5 145.09-21.38 143.59-22.25 141.49-22.25L141.49-22.25Q139.39-22.25 137.39-21.28 135.39-20.3 133.94-18.43 132.49-16.55 131.99-13.75L131.99-13.75 131.74-12.35Q131.24-9.55 131.86-7.4 132.49-5.25 134.11-4.1 135.74-2.95 138.09-2.95L138.09-2.95Q140.74-2.95 142.66-4.15 144.59-5.35 145.69-7.35L145.69-7.35 149.84-7.35Q148.84-5.05 147.04-3.28 145.24-1.5 142.81-0.45 140.39 0.6 137.44 0.6ZM159.14 0L154.94 0 159.34-25.2 163.14-25.2 162.64-20.8 162.64-20.8Q164.24-23.15 166.71-24.48 169.19-25.8 172.04-25.8L172.04-25.8Q175.09-25.8 177.01-24.48 178.94-23.15 179.64-20.75 180.34-18.35 179.74-15.05L179.74-15.05 177.09 0 172.89 0 175.44-14.6Q176.09-18.25 174.84-20.23 173.59-22.2 170.44-22.2L170.44-22.2Q168.39-22.2 166.56-21.2 164.74-20.2 163.44-18.35 162.14-16.5 161.54-13.8L161.54-13.8 159.14 0ZM197.38 0L193.43 0Q190.88 0 189.33-0.8 187.78-1.6 187.26-3.3 186.73-5 187.18-7.7L187.18-7.7 189.68-21.65 185.63-21.65 186.28-25.2 190.33-25.2 191.93-31.3 195.63-31.3 194.53-25.2 201.88-25.2 201.23-21.65 193.88-21.65 191.38-7.7Q190.98-5.35 191.83-4.48 192.68-3.6 194.83-3.6L194.83-3.6 198.03-3.6 197.38 0ZM210.98 0.6L210.98 0.6Q208.13 0.6 206.36-0.38 204.58-1.35 203.78-2.98 202.98-4.6 203.08-6.45L203.08-6.45Q203.18-9.15 204.73-11.1 206.28-13.05 209.03-14.1 211.78-15.15 215.33-15.15L215.33-15.15 221.98-15.15Q222.38-17.55 221.96-19.13 221.53-20.7 220.28-21.48 219.03-22.25 217.03-22.25L217.03-22.25Q214.63-22.25 212.68-21.05 210.73-19.85 209.88-17.5L209.88-17.5 205.53-17.5Q206.33-20.2 208.16-22.03 209.98-23.85 212.43-24.83 214.88-25.8 217.58-25.8L217.58-25.8Q220.98-25.8 223.11-24.53 225.23-23.25 226.03-20.98 226.83-18.7 226.28-15.6L226.28-15.6 223.53 0 219.73 0 220.28-4.45 220.28-4.45Q219.58-3.4 218.66-2.48 217.73-1.55 216.58-0.85 215.43-0.15 214.03 0.23 212.63 0.6 210.98 0.6ZM212.18-2.95L212.18-2.95Q213.98-2.95 215.58-3.68 217.18-4.4 218.46-5.65 219.73-6.9 220.51-8.45 221.28-10 221.38-11.7L221.38-11.7 221.38-11.9 215.13-11.9Q212.78-11.9 211.08-11.28 209.38-10.65 208.51-9.53 207.63-8.4 207.53-6.85L207.53-6.85Q207.48-5.05 208.68-4 209.88-2.95 212.18-2.95ZM234.68 0L230.48 0 236.88-36 241.08-36 234.68 0Z" opacity="1" transform="matrix(1,0,0,1,0,0)" fill="#414141" class="slogan-text-1" data-fill-palette-color="secondary" id="text-1"></path></svg></g></svg></g></svg></g></svg></g><g transform="matrix(1,0,0,1,443.6533556539355,0)"><svg viewBox="0 0 87.76566668921343 199.38229413126803" height="199.38229413126803" width="87.76566668921343"><g><svg xmlns="http://www.w3.org/2000/svg" xmlns:xlink="http://www.w3.org/1999/xlink" version="1.1" x="0" y="0" viewBox="29.624000000000002 3.973 40.675999999999995 92.406" enable-background="new 0 0 100 100" xml:space="preserve" height="199.38229413126803" width="87.76566668921343" class="icon-icon-0" data-fill-palette-color="accent" id="icon-0"><path fill-rule="evenodd" clip-rule="evenodd" fill="#261f20" d="M70.232 22.923c-0.104-3.721-1.637-12.875-4.28-15.612C63.169 4.429 56.667 4.014 50 3.974V3.973c-0.013 0-0.031 0-0.043 0s-0.021 0-0.034 0v0.001c-6.667 0.041-13.168 0.456-15.952 3.337-2.643 2.737-4.176 11.892-4.28 15.612 0 4.314-0.067 45.924-0.067 58.497 0 4.322 0.107 8.727 2.22 10.866 2.075 2.102 10.457 4.093 18.113 4.093 7.518 0 16.048-1.991 18.123-4.093 2.112-2.14 2.22-6.544 2.22-10.866C70.299 68.848 70.232 27.238 70.232 22.923zM49.957 25.182c11.637 0 16.282 3.422 16.282 3.422l-4.524 15.37c0 0-1.121-0.225-2.812-0.598-1.599-0.354-5.361-1.015-8.946-1.084-3.584 0.07-7.415 0.731-9.014 1.084-1.69 0.374-2.811 0.598-2.811 0.598l-4.525-15.37C33.607 28.604 38.272 25.182 49.957 25.182zM32.035 39.398l3.896 11.203V58.3l-3.896-1.492V39.398zM32.035 62.773l3.896 1.137V77.14l-3.896 2.672V62.773zM49.957 88.764c-0.012 0-0.022 0-0.034 0s-0.022 0-0.034 0c-8.118 0-15.051-2.189-15.051-2.189l3.535-4.448c0 0 5.484 1.403 11.583 1.403 5.831 0 11.516-1.403 11.516-1.403l3.535 4.448C65.008 86.574 57.923 88.764 49.957 88.764zM67.811 79.812l-3.896-2.672V63.91l3.896-1.137V79.812zM67.811 56.808L63.915 58.3v-7.698l3.896-11.203V56.808z" data-fill-palette-color="accent"></path></svg></g></svg></g></svg></g><defs></defs></svg><rect width="395.5199999999999" height="148.39454678737056" fill="none" stroke="none" visibility="hidden"></rect></g></svg></g></svg>